<svg
  xmlns="http://www.w3.org/2000/svg"
  width="20"
  height="20"
  viewBox="0 0 20 20"
>
  <g transform="translate(0 0)">
    <path
      d="M204.072,195.365h0l-.746-2.531-.807-2.739h0l-1.113,3.608-.509,1.659Z"
      transform="translate(-199.151 -183.452)"
      fill="#fff"
    />
    <path
      d="M334.978,25.447a6.884,6.884,0,0,0,2.331-2.465,6.6,6.6,0,0,0,.841-3.255,6.15,6.15,0,0,0-.558-2.521,7.34,7.34,0,0,0-1.537-2.226,7.657,7.657,0,0,0-2.347-1.577,7.274,7.274,0,0,0-2.98-.6H325.2l1.832,4.789h3.288a1.623,1.623,0,0,1,1.119.548A2.129,2.129,0,0,1,332,19.727a2.345,2.345,0,0,1-.48,1.577,1.366,1.366,0,0,1-1.042.562h-1.8L332.842,32.8h6.8Z"
      transform="translate(-319.637 -12.798)"
      fill="#fff"
    />
    <path
      d="M149.584,470.9h-4.651l-1.034,3.328h6.744l-.322-1.018Z"
      transform="translate(-143.899 -454.227)"
      fill="#fff"
    />
  </g>
</svg>
